<svg xmlns="http://www.w3.org/2000/svg" viewBox="0 0 360 600" width="360" height="600" role="img" aria-label="Perfil de escores desenhado em barras">
  <rect width="360" height="600" fill="#1c1a46"/>
  <g><rect x="170.0" y="44" width="30.0" height="9" fill="#d9c176" opacity="0.90"/><rect x="21.3" y="82" width="178.7" height="9" fill="#d9c176" opacity="0.71"/><rect x="200" y="82" width="41.8" height="9" fill="#d9c176" opacity="0.4"/><rect x="131.7" y="120" width="68.3" height="9" fill="#d9c176" opacity="0.51"/><rect x="31.1" y="158" width="168.9" height="9" fill="#d9c176" opacity="0.85"/><rect x="95.9" y="196" width="104.1" height="9" fill="#d9c176" opacity="0.85"/><rect x="50.2" y="234" width="149.8" height="9" fill="#d9c176" opacity="0.51"/><rect x="200" y="234" width="47.0" height="9" fill="#d9c176" opacity="0.4"/><rect x="65.0" y="272" width="135.0" height="9" fill="#d9c176" opacity="0.72"/><rect x="77.3" y="310" width="122.7" height="9" fill="#d9c176" opacity="0.90"/><rect x="41.1" y="348" width="158.9" height="9" fill="#d9c176" opacity="0.70"/><rect x="110.5" y="386" width="89.5" height="9" fill="#d9c176" opacity="0.52"/><rect x="200" y="386" width="50.4" height="9" fill="#d9c176" opacity="0.4"/><rect x="25.8" y="424" width="174.2" height="9" fill="#d9c176" opacity="0.86"/><rect x="147.7" y="462" width="52.3" height="9" fill="#d9c176" opacity="0.84"/><rect x="20.0" y="500" width="180.0" height="9" fill="#d9c176" opacity="0.50"/><rect x="153.7" y="538" width="46.3" height="9" fill="#d9c176" opacity="0.72"/><rect x="200" y="538" width="51.9" height="9" fill="#d9c176" opacity="0.4"/><rect x="24.2" y="576" width="175.8" height="9" fill="#d9c176" opacity="0.90"/></g>
  <line x1="200" y1="20" x2="200" y2="590" stroke="#d9c176" stroke-width="2"/>
  <line x1="120" y1="20" x2="120" y2="590" stroke="#d9c176" stroke-width="1" stroke-dasharray="3 6" opacity="0.5"/>
  <line x1="40" y1="20" x2="40" y2="590" stroke="#d9c176" stroke-width="1" stroke-dasharray="3 6" opacity="0.35"/>
</svg>